<svg width="16" height="16" viewBox="0 0 16 16" fill="none" xmlns="http://www.w3.org/2000/svg">
<path d="M14.1227 9.0202H9.02069V14.1222C9.02069 14.6835 8.5615 15.1426 8.00028 15.1426C7.43905 15.1426 6.97987 14.6835 6.97987 14.1222V9.0202H1.87783C1.31661 9.0202 0.857422 8.56102 0.857422 7.99979C0.857422 7.43857 1.31661 6.97938 1.87783 6.97938H6.97987V1.87734C6.97987 1.31612 7.43905 0.856934 8.00028 0.856934C8.5615 0.856934 9.02069 1.31612 9.02069 1.87734V6.97938H14.1227C14.684 6.97938 15.1431 7.43857 15.1431 7.99979C15.1431 8.56102 14.684 9.0202 14.1227 9.0202Z" fill="white"/>
</svg>
